<svg xmlns="http://www.w3.org/2000/svg" aria-hidden="true" style="width:0;height:0;position:absolute;overflow:hidden"><defs><symbol id="Search-icon" viewBox="0 0 32 32"><path d="M31.219 27.448 25.6 21.829a13.886 13.886 0 0 0 2.399-7.841c0-7.739-6.273-14.012-14.012-14.012S-.025 6.249-.025 13.988C-.025 21.727 6.248 28 13.987 28c2.926 0 5.642-.897 7.89-2.431l-.048.031 5.618 5.618a2.667 2.667 0 0 0 3.772-3.771zM5.333 14v-.008a8.667 8.667 0 1 1 14.882 6.041l.002-.002c-.033.03-.071.052-.103.084s-.053.069-.083.103a8.66 8.66 0 0 1-14.697-6.211v-.006z"/></symbol></defs></svg>